HIERARCHY
ROOT root
{
	OFFSET 0.000000 0.000000 0.000000
	CHANNELS 6 Xposition Yposition Zposition Zrotation Yrotation Xrotation
	JOINT lhip
	{
		OFFSET 0.058581 -0.082280 -0.017664
		CHANNELS 3 Zrotation Yrotation Xrotation
		JOINT lknee
		{
			OFFSET 0.043451 -0.386469 0.008037
			CHANNELS 3 Zrotation Yrotation Xrotation
			JOINT lankle
			{
				OFFSET -0.014790 -0.426874 -0.037428
				CHANNELS 3 Zrotation Yrotation Xrotation
				JOINT ltoe
				{
					OFFSET 0.041054 -0.060286 0.122042
					CHANNELS 3 Zrotation Yrotation Xrotation
					End Site
					{
						OFFSET 0.000000 0.000000 0.000000
					}
				}
			}
		}
	}
	JOINT rhip
	{
		OFFSET -0.060310 -0.090513 -0.013543
		CHANNELS 3 Zrotation Yrotation Xrotation
		JOINT rknee
		{
			OFFSET -0.043257 -0.383688 -0.004843
			CHANNELS 3 Zrotation Yrotation Xrotation
			JOINT rankle
			{
				OFFSET 0.019056 -0.420046 -0.034562
				CHANNELS 3 Zrotation Yrotation Xrotation
				JOINT rtoe
				{
					OFFSET -0.034840 -0.062106 0.130323
					CHANNELS 3 Zrotation Yrotation Xrotation
					End Site
					{
						OFFSET 0.000000 0.000000 0.000000
					}
				}
			}
		}
	}
	JOINT lowerback
	{
		OFFSET 0.004439 0.124404 -0.038385
		CHANNELS 3 Zrotation Yrotation Xrotation
		JOINT upperback
		{
			OFFSET 0.004488 0.137956 0.026820
			CHANNELS 3 Zrotation Yrotation Xrotation
			JOINT chest
			{
				OFFSET -0.002265 0.056032 0.002855
				CHANNELS 3 Zrotation Yrotation Xrotation
				JOINT lowerneck
				{
					OFFSET -0.013390 0.211636 -0.033468
					CHANNELS 3 Zrotation Yrotation Xrotation
					JOINT upperneck
					{
						OFFSET 0.010113 0.088937 0.050410
						CHANNELS 3 Zrotation Yrotation Xrotation
						End Site
						{
							OFFSET 0.000000 0.000000 0.000000
						}
					}
				}
				JOINT lclavicle
				{
					OFFSET 0.071702 0.114000 -0.018898
					CHANNELS 3 Zrotation Yrotation Xrotation
					JOINT lshoulder
					{
						OFFSET 0.122921 0.045205 -0.019046
						CHANNELS 3 Zrotation Yrotation Xrotation
						JOINT lelbow
						{
							OFFSET 0.255332 -0.015649 -0.022946
							CHANNELS 3 Zrotation Yrotation Xrotation
							JOINT lwrist
							{
								OFFSET 0.265709 0.012698 -0.007375
								CHANNELS 3 Zrotation Yrotation Xrotation
								End Site
								{
									OFFSET 0.000000 0.000000 0.000000
								}
							}
						}
					}
				}
				JOINT rclavicle
				{
					OFFSET -0.082954 0.112472 -0.023707
					CHANNELS 3 Zrotation Yrotation Xrotation
					JOINT rshoulder
					{
						OFFSET -0.113228 0.046853 -0.008472
						CHANNELS 3 Zrotation Yrotation Xrotation
						JOINT relbow
						{
							OFFSET -0.260127 -0.014369 -0.031269
							CHANNELS 3 Zrotation Yrotation Xrotation
							JOINT rwrist
							{
								OFFSET -0.269108 0.006794 -0.006027
								CHANNELS 3 Zrotation Yrotation Xrotation
								End Site
								{
									OFFSET 0.000000 0.000000 0.000000
								}
							}
						}
					}
				}
			}
		}
	}
}
MOTION
Frames: 14
Frame Time: 0.033333
-0.198804 0.047122 0.983680 166.048454 6.272557 85.839217 16.344545 1.502126 2.682083 -7.366719 0.702832 54.627678 -0.053766 11.814049 -8.161957 0.000000 -0.000000 0.000000 8.839995 1.266867 -11.093498 6.800274 -11.358993 18.534070 -3.326354 -12.231626 -20.175561 0.000000 -0.000000 0.000000 -3.530911 -0.660080 9.748098 4.107385 -2.365620 -2.442181 2.246748 -4.397315 -0.131298 13.262038 3.680362 -3.451765 7.177824 -1.693135 9.837912 -28.194603 -3.887095 1.863836 -46.853004 -8.430489 10.796232 0.044508 -27.514728 11.757461 -2.141626 -3.918437 1.964618 25.821428 0.257852 -1.129797 48.841909 -2.381177 8.908109 -3.208026 17.135819 4.200207 5.211408 0.656888 -7.112314 
-0.188535 0.068974 0.978678 165.565774 6.628468 85.268253 17.913242 2.351807 -3.574074 -4.670527 4.017548 60.593266 0.378479 12.754489 -12.764767 0.000000 -0.000000 0.000000 9.551616 -0.247592 -7.820243 7.168001 -10.557582 17.026758 -3.102972 -10.909300 -21.211405 0.000000 -0.000000 0.000000 -2.968182 0.688722 11.709409 3.984405 -2.408038 -3.440962 2.295365 -3.692570 -0.197769 12.303916 2.888198 -3.626357 6.845635 -2.275328 9.506070 -28.852258 -4.480844 1.435609 -46.315630 -8.661814 9.920477 1.137320 -26.755567 9.605823 2.448333 -5.067449 2.768775 26.156310 1.349171 -1.059006 47.365626 -0.888157 8.467102 -2.581028 19.020564 3.674415 0.440157 1.984756 -6.604250 
-0.179257 0.090980 0.974148 165.072357 6.656185 84.786547 18.339015 3.016829 -9.672215 -3.040047 6.424982 63.441476 0.491593 12.668382 -16.626591 0.000000 -0.000000 0.000000 9.566227 -1.971105 -4.701992 7.755538 -9.450793 15.622800 -2.489713 -9.514285 -22.125052 0.000000 -0.000000 0.000000 -2.721394 2.191845 13.335883 3.801248 -2.477132 -4.210869 2.389847 -3.044737 -0.427088 11.390816 2.505109 -3.234401 6.475280 -3.020965 8.951641 -29.016242 -4.886920 1.137490 -46.518428 -9.143356 9.145623 2.773001 -25.958811 7.378792 7.420294 -5.876977 2.163868 26.400571 2.638976 -0.996766 46.246100 1.220102 7.993517 -2.637888 19.398250 3.128613 -4.706581 2.778546 -5.982397 
-0.170437 0.111959 0.971370 164.776694 6.521753 84.544115 18.009259 3.259345 -15.884402 -2.245422 8.763523 63.539238 1.396250 13.056103 -18.942884 0.000000 -0.000000 0.000000 9.336791 -3.717108 -1.824116 8.273699 -7.935902 14.239674 -2.147322 -8.370326 -23.064869 0.000000 -0.000000 0.000000 -2.757496 3.635726 14.435558 3.669199 -2.770080 -5.146634 2.525780 -2.443967 -0.045186 10.458183 2.303994 -2.948562 5.944595 -3.734487 8.280630 -28.620484 -5.050068 0.608280 -47.263969 -9.459833 8.546735 4.500835 -25.473782 5.466156 11.008311 -5.450608 0.713749 26.374090 4.017989 -0.961629 45.869870 4.122786 7.561346 -3.521896 18.257963 2.272525 -8.350866 2.976203 -4.469432 
-0.162275 0.133185 0.970501 164.595343 6.169802 84.681206 16.971562 3.054871 -21.914210 -2.079989 11.296839 60.616983 2.204428 13.538420 -20.905806 0.000000 -0.000000 0.000000 8.979653 -5.245601 0.535793 8.309836 -6.336611 13.120292 -1.955599 -7.604250 -24.102103 0.000000 -0.000000 0.000000 -2.861219 5.036595 14.918699 3.467969 -3.098062 -6.064015 2.511406 -2.027141 0.404399 9.486646 2.204733 -3.227027 5.154635 -4.597167 8.081593 -27.924855 -4.965112 0.025994 -48.046050 -9.412532 8.260985 6.004385 -25.458015 3.457755 12.749715 -4.189422 -1.328809 26.186768 5.342209 -0.952070 45.989656 7.042210 7.604656 -4.678285 16.419759 1.549297 -9.758289 2.289271 -3.735882 
-0.155052 0.155578 0.970890 164.460373 5.561510 85.188759 15.270762 2.142351 -26.993963 -2.686046 13.220727 54.138366 2.937879 12.951371 -21.237929 0.000000 -0.000000 0.000000 8.477266 -6.080803 2.683661 8.002171 -5.000791 11.654459 -1.800311 -7.204920 -24.590465 0.000000 -0.000000 0.000000 -2.959777 6.346911 14.772929 3.123728 -3.413378 -6.491854 2.225557 -1.547733 0.685560 8.713045 2.249112 -3.983712 4.317560 -5.700612 7.697973 -27.243047 -4.834161 -0.652879 -48.391098 -9.027572 8.450532 6.736968 -25.315125 2.532443 13.619905 -3.858681 -3.085749 25.850871 6.336355 -1.048838 46.690936 9.690373 7.938742 -5.935951 15.139339 0.475480 -10.678273 1.870012 -3.629237 
-0.149169 0.178738 0.971647 164.301080 4.893630 86.046793 13.192652 0.466212 -30.914272 -3.735144 13.341797 44.414991 3.673972 12.410041 -19.839723 0.000000 -0.000000 0.000000 8.150392 -6.131415 4.629195 7.447939 -3.552274 9.591388 -1.525427 -7.880250 -24.666819 0.000000 -0.000000 0.000000 -2.719887 7.375144 13.935704 2.577656 -3.488812 -6.725174 1.734968 -1.141500 1.180270 8.402448 1.607490 -6.600326 2.600549 -6.419012 8.324465 -27.163517 -4.606908 -0.922766 -47.912012 -8.748105 8.940306 7.032378 -25.083654 2.483889 13.248365 -4.348323 -4.101525 25.158100 7.052109 -1.036520 47.758772 11.999602 9.026425 -6.872907 14.962284 -1.107211 -10.561766 2.107503 -4.356863 
-0.144087 0.203342 0.971988 164.196543 4.221726 87.065439 11.072465 -1.925024 -33.414076 -4.736741 10.826663 32.489296 4.020399 11.801203 -16.569266 0.000000 -0.000000 0.000000 7.652927 -6.131340 6.728648 7.076690 -2.118047 7.078094 -0.994491 -8.789773 -24.862622 0.000000 -0.000000 0.000000 -2.203190 8.147515 13.001796 1.769698 -3.528007 -6.857178 0.946748 -0.505403 1.554486 7.658818 0.774739 -9.058817 0.834832 -8.232913 8.051005 -26.980234 -3.851237 -1.727663 -47.131714 -8.201332 9.951003 6.556501 -25.041367 4.145253 13.019489 -4.945622 -4.066552 24.561144 7.241791 -1.300744 48.709674 13.262760 10.403528 -6.610482 16.677647 -1.683534 -10.910254 2.539400 -5.585898 
-0.139379 0.228870 0.970826 163.792181 3.591964 88.051257 9.163590 -3.969255 -34.943200 -4.668907 6.056661 21.572092 3.899553 9.695232 -11.676786 0.000000 -0.000000 0.000000 6.811929 -6.755284 8.915248 6.756226 -0.386356 4.812934 -0.864288 -9.359587 -25.138986 0.000000 -0.000000 0.000000 -1.511120 9.026139 11.689747 0.843782 -3.465287 -6.490369 0.087387 0.071339 2.049607 6.433550 0.128811 -11.919566 -1.380596 -9.883833 8.206885 -27.156181 -3.101525 -2.563191 -45.908015 -7.551589 10.636467 6.170750 -25.430643 5.474184 12.340120 -5.307996 -3.816678 24.323846 7.570336 -1.443161 49.151824 13.814279 11.909149 -6.394142 20.228504 -1.371288 -10.416548 3.577921 -6.248360 
-0.134599 0.255649 0.967515 162.915916 3.067293 89.006911 7.612397 -4.952449 -36.544590 -3.834253 2.234919 15.752069 4.057001 8.372138 -9.384550 0.000000 -0.000000 0.000000 5.722125 -7.862575 10.448526 6.514194 1.610759 4.115021 -0.483120 -9.439150 -25.807862 0.000000 -0.000000 0.000000 -0.747153 9.933035 10.559206 -0.074214 -3.194522 -6.357890 -0.686546 0.685141 2.323021 5.108059 -1.144137 -15.391008 -4.010294 -11.134109 8.711881 -27.751680 -2.324391 -2.921948 -44.405142 -6.530396 10.677580 5.827722 -25.855883 6.446788 12.402154 -5.715413 -3.796971 24.345441 7.906629 -1.194569 49.121765 14.091087 13.040835 -5.769265 24.441760 -0.564371 -10.338444 4.953284 -6.238077 
-0.129033 0.285210 0.962524 161.836549 2.400258 88.907002 6.224232 -5.489388 -36.816396 -3.996081 1.355426 15.447971 4.664807 8.031430 -11.490758 0.000000 -0.000000 0.000000 4.248493 -7.846376 12.910758 6.184178 1.020216 4.383025 -0.417551 -7.812316 -27.637968 0.000000 -0.000000 0.000000 -0.456405 10.456837 10.439974 -1.340473 -3.338274 -4.285655 -1.692491 1.817705 0.237438 2.876936 0.958363 -6.283393 2.124370 -11.853101 -0.898724 -26.077955 -2.099953 -3.619489 -44.760020 -3.341454 10.558418 6.336584 -27.434158 5.805163 13.965693 -4.797937 -3.854795 24.886491 9.026525 -0.759283 48.683535 13.083310 11.546007 -2.669582 29.076932 3.381520 -11.623720 4.912081 -6.937122 
-0.123858 0.316342 0.955733 160.047495 1.764845 89.139545 5.584320 -6.835011 -36.190752 -3.907717 2.401299 17.016422 5.691574 7.378617 -11.597494 0.000000 -0.000000 0.000000 2.864659 -7.665968 14.343888 5.511821 1.923875 5.621270 -0.460482 -7.488648 -28.330456 0.000000 -0.000000 0.000000 -0.351706 10.842000 9.627776 -1.871534 -2.676327 -3.497628 -2.237021 2.516465 -0.134421 2.164302 0.646036 -6.485642 1.075902 -10.946921 -2.142942 -26.998774 -1.041190 -3.683607 -44.130686 -1.975025 10.055539 7.488269 -26.792816 3.124601 15.283037 -5.067664 -4.216173 25.305062 9.556159 -0.057730 48.282113 14.035514 12.965475 -1.312059 31.321510 4.826111 -11.794871 5.560872 -7.284120 
-0.119492 0.348844 0.949206 158.588260 0.914234 89.655969 4.802159 -7.783545 -36.402922 -3.216214 4.371437 19.812636 6.461536 7.553813 -9.174659 0.000000 -0.000000 0.000000 1.872998 -6.558265 15.272699 4.382311 2.644389 7.150468 -0.487892 -8.108887 -28.437581 0.000000 -0.000000 0.000000 -0.685070 10.826175 8.640584 -2.147039 -2.164801 -3.203385 -2.632278 2.995739 -0.398854 1.556605 0.411239 -6.359095 0.058806 -9.270530 -2.618554 -27.606605 0.503306 -3.517091 -44.574511 -0.954599 9.337957 9.178871 -25.115965 0.536568 15.672174 -5.030484 -4.589417 25.502307 9.850909 0.328282 48.665139 15.283133 14.906619 -0.228028 31.563613 6.229105 -11.215651 6.098212 -6.832317 
-0.115118 0.381714 0.946438 157.803022 -0.186022 90.202349 3.708399 -7.375729 -36.896103 -3.984666 5.440863 23.406778 7.140586 8.484204 -9.232875 0.000000 -0.000000 0.000000 0.775931 -5.620999 15.608663 3.347454 3.064507 9.741842 -0.204353 -9.029308 -28.001274 0.000000 -0.000000 0.000000 -1.722921 10.567153 7.602896 -2.246330 -1.958821 -3.321355 -2.641745 3.155979 -0.538207 1.330408 1.046746 -5.928338 -0.496145 -7.215897 -1.289632 -27.525022 1.766153 -3.270267 -46.072102 -0.004627 7.938506 10.719849 -22.178608 -2.148336 15.587984 -3.502975 -5.535284 25.568868 9.888624 0.620418 49.903415 16.193676 16.459920 0.329568 30.411812 7.559817 -9.729647 5.918065 -5.536904 
